<svg xmlns="http://www.w3.org/2000/svg" xmlns:xlink="http://www.w3.org/1999/xlink" viewBox="0 0 169.49 110.56"><defs><style>.cls-1{fill:none;}.cls-2{fill:#1e0f00;}.cls-3{fill:#f7cd3e;}.cls-4{clip-path:url(#clip-path);}.cls-5,.cls-6{fill:#000c0d;}.cls-5{fill-rule:evenodd;}</style><clipPath id="clip-path"><rect class="cls-1" x="5.85" y="21.55" width="143.79" height="32.67"/></clipPath></defs><title>アセット 1</title><g id="レイヤー_2" data-name="レイヤー 2"><g id="レイヤー_1-2" data-name="レイヤー 1"><path class="cls-2" d="M73.92,104c0,2.14-.3,6.53-5.38,6.53-3.8,0-4.39-1.51-4.39-2.28a1.22,1.22,0,0,1,1.36-1.18,1.85,1.85,0,0,1,1.79,1.23c.35.74.69,1,1.24,1,1.44,0,1.49-2.44,1.49-4.6V92.33c0-1.77-.18-2-2.14-2V89.17h8v1.14c-1.76,0-1.94.28-1.94,2Z"/><path class="cls-2" d="M84.14,101.42H78.76l-.64,2.33a4.61,4.61,0,0,0-.23,1.16c0,.51.32.63,1.17.63v1.11H74.74v-1.11c.75,0,1.12-.26,1.46-1.33l4.94-15.37H83.6l5.31,15c.49,1.39.79,1.65,1.61,1.65v1.11H83.9v-1.11c.91,0,1.24-.19,1.24-.65a3,3,0,0,0-.2-.86Zm-.44-1.35-2.29-7h-.09l-2.09,7Z"/><path class="cls-2" d="M89.67,105.54c1.84,0,2-.28,2-2V92.31c0-1.75-.2-2-2-2V89.17h7.62c2.61,0,4.15.35,5.31,1.14A4.32,4.32,0,0,1,104.44,94a4.42,4.42,0,0,1-1.76,3.84c-1.17.86-2.76,1.3-5.79,1.3H95.6v4.42c0,1.74.13,2,2.24,2v1.11H89.67Zm7.2-7.77c2.73,0,3.57-1.53,3.57-3.67,0-3.37-2.21-3.58-3.45-3.58h-.81c-.5,0-.58.23-.58,1.3v6Z"/><path class="cls-2" d="M112.38,101.42H107l-.64,2.33a4.61,4.61,0,0,0-.23,1.16c0,.51.33.63,1.17.63v1.11H103v-1.11c.75,0,1.12-.26,1.47-1.33l4.93-15.37h2.46l5.31,15c.5,1.39.79,1.65,1.61,1.65v1.11h-6.62v-1.11c.92,0,1.24-.19,1.24-.65a3,3,0,0,0-.2-.86Zm-.45-1.35-2.28-7h-.1l-2.09,7Z"/><path class="cls-2" d="M123.34,89.17l7.37,12.88h0V92.31c0-1.75-.27-2-2-2V89.17h5.43v1.14c-1.56,0-1.83.25-1.83,2v14.6h-2.63l-8.29-14.3h0v10.93c0,1.72.2,2,1.89,2v1.11h-5.44v-1.11c1.69,0,1.89-.28,1.89-2V92.26c0-1.77-.2-2-1.91-2V89.17Z"/><polygon class="cls-3" points="0 0 0 77.09 18.83 77.09 34.26 93.57 60.16 93.57 67.22 85.46 84.48 85.46 92.85 77.09 110.38 77.09 118.75 85.46 144.64 85.46 153.01 77.09 169.49 77.09 169.49 0 0 0"/><g class="cls-4"><path class="cls-5" d="M31.11,23.4,22.74,34.78H39.49Zm2.15,12.41L39.19,43H5.85L21.4,21.55l5.22,6.22,4.49-6.1L41.52,35.81Zm112,11.2v5.31l-1.5,1.48h5.91l-1.5-1.48v-11l1.5-1.5h-5.91l1.5,1.5v4.23h-4.48V41.36l1.5-1.5h-5.9l1.48,1.5v11l-1.48,1.48h5.9l-1.5-1.48V47Zm-10.1-6.61a7.14,7.14,0,0,0-3.93-.83c-3.59,0-6.38,3.51-6.38,7.26s2.79,7.29,6.38,7.29a7.4,7.4,0,0,0,3.93-.83v-3.5L132.93,52a2.25,2.25,0,0,1-1.73.69c-2.55,0-3-3.25-3-5.84s.33-5.92,3-5.92a2.41,2.41,0,0,1,1.73.65l2.2,2.23V40.4M123.64,53.8V50.48l-1.9,1.88h-3.53V47.13h2.45l1.5,1.48V44.17l-1.5,1.52h-2.45V41.3h3.53l1.9,1.9V39.86h-9.83l1.5,1.5v11l-1.5,1.48Zm-14.35-1.48v-11h1.95l1.9,1.9V39.86h-10.6V43.2l1.89-1.9h1.93v11l-1.48,1.48h5.91ZM98.21,48.55l-1.52-4.62-.06.14-1.58,4.48h3.16Zm-.16,5.25,1.47-1.48L98.75,50H94.56l-.83,2.37,1.46,1.48H90.47L92,52.3l4.44-12.44h1.78l4.33,12.44,1.52,1.5ZM67.53,50.07c0,2.6,2.49,4.14,4.88,4.14,2.59,0,4.91-1.67,4.91-4.14V41.36l1.51-1.5H74.09l1.5,1.5v8.71a2.58,2.58,0,1,1-5.15,0V41.36l1.47-1.5H66l1.52,1.5Zm-5.11-3.24c0-2.6-.46-5.92-3-5.92s-3,3.32-3,5.92.43,5.94,3,5.94,3-3.31,3-5.94m3.4,0c0,3.81-2.55,7.38-6.38,7.38s-6.38-3.57-6.38-7.38,2.55-7.36,6.38-7.36,6.38,3.57,6.38,7.36M50,53.8h-5.9l1.5-1.48v-11h-2l-1.88,1.9V39.86H52.31V43.2l-1.89-1.9h-2v11Z"/><path class="cls-5" d="M85.38,46a1.85,1.85,0,0,1-.57.1h-1V41.3h1a2.7,2.7,0,0,1,.57.08A2.29,2.29,0,0,1,87,43.57,2.46,2.46,0,0,1,85.38,46m5.11,6.36L87.57,47a3.82,3.82,0,0,0,2.63-3.42c0-2.34-2.45-3.51-4.82-3.69l-.57,0H79.42l1.46,1.5v11L79.42,53.8H85.3l-1.52-1.48V47.5h1l.59,1.23,2.51,5.07H92Z"/><polygon class="cls-6" points="67.5 31.45 70.75 34.86 70.75 31.63 71.21 31.63 71.21 35.98 67.96 32.58 67.96 35.8 67.5 35.8 67.5 31.45"/><polygon class="cls-6" points="72.38 31.63 74.54 31.63 74.54 32.06 72.84 32.06 72.84 33.3 74.49 33.3 74.49 33.73 72.84 33.73 72.84 35.36 74.54 35.36 74.54 35.8 72.38 35.8 72.38 31.63"/><polygon class="cls-6" points="76.77 34.75 78.12 31.41 79.47 34.75 80.56 31.63 81.07 31.63 79.47 36.01 78.12 32.66 76.77 36.01 75.18 31.63 75.68 31.63 76.77 34.75"/><rect class="cls-6" x="83.65" y="31.63" width="0.46" height="4.17"/><path class="cls-6" d="M86.07,35.36h.36a1.28,1.28,0,0,0,.34-.07,1.44,1.44,0,0,0,.32-.13,1.48,1.48,0,0,0,.29-.22,1.63,1.63,0,0,0,.39-.55,1.67,1.67,0,0,0,.13-.67,1.72,1.72,0,0,0-.13-.68,1.54,1.54,0,0,0-.41-.57,1.29,1.29,0,0,0-.61-.32,2.49,2.49,0,0,0-.68-.08h-.34v3.3Zm-.81-3.73h.79l.45,0a2.7,2.7,0,0,1,.41.07,2.14,2.14,0,0,1,.39.16,2.07,2.07,0,0,1,.38.25,2,2,0,0,1,.52.72,2.25,2.25,0,0,1,.17.87,2.19,2.19,0,0,1-.17.85,2,2,0,0,1-.51.7,2.22,2.22,0,0,1-.38.27,1.88,1.88,0,0,1-.39.16,2.61,2.61,0,0,1-.42.08l-.46,0h-.78Z"/><polygon class="cls-6" points="89.2 31.63 91.36 31.63 91.36 32.06 89.67 32.06 89.67 33.3 91.31 33.3 91.31 33.73 89.67 33.73 89.67 35.36 91.36 35.36 91.36 35.8 89.2 35.8 89.2 31.63"/><path class="cls-6" d="M93.76,32.51l-.71,1.67h1.41Zm-.9,2.1-.5,1.19h-.51l1.92-4.37,1.88,4.37h-.52l-.49-1.19Z"/><path class="cls-6" d="M98.07,32.44a1,1,0,0,0-.29-.33.71.71,0,0,0-.43-.12.58.58,0,0,0-.26.05.71.71,0,0,0-.22.13.75.75,0,0,0-.15.2.58.58,0,0,0-.06.26.4.4,0,0,0,.07.24.65.65,0,0,0,.15.18l.21.13.23.11.27.12.39.19a1.5,1.5,0,0,1,.31.24,1,1,0,0,1,.22.31.94.94,0,0,1,.08.43,1.22,1.22,0,0,1-.1.51,1.3,1.3,0,0,1-.28.41,1.51,1.51,0,0,1-.42.27,1.45,1.45,0,0,1-.51.1,1.39,1.39,0,0,1-.46-.08,1.26,1.26,0,0,1-.39-.22,1.34,1.34,0,0,1-.28-.34,1.55,1.55,0,0,1-.17-.44l.46-.13a.75.75,0,0,0,.09.3.94.94,0,0,0,.18.25.85.85,0,0,0,.25.17.81.81,0,0,0,.31.06.87.87,0,0,0,.32-.06.88.88,0,0,0,.28-.17,1,1,0,0,0,.19-.26.88.88,0,0,0,.07-.33.62.62,0,0,0-.07-.31.87.87,0,0,0-.17-.22,1.53,1.53,0,0,0-.25-.16l-.28-.13-.26-.12-.34-.17a1.69,1.69,0,0,1-.29-.22.8.8,0,0,1-.2-.28.94.94,0,0,1-.07-.39,1,1,0,0,1,.09-.44,1.07,1.07,0,0,1,.63-.55,1.33,1.33,0,0,1,.45-.07,1.15,1.15,0,0,1,.63.17,1.25,1.25,0,0,1,.44.47Z"/><polygon class="cls-6" points="101.82 32.06 101.82 33.3 103.21 33.3 103.21 33.73 101.82 33.73 101.82 35.8 101.36 35.8 101.36 31.63 103.25 31.63 103.25 32.06 101.82 32.06"/><path class="cls-6" d="M106,32a1.7,1.7,0,0,0-.67.13,2,2,0,0,0-.54.37,1.87,1.87,0,0,0-.36.55,1.7,1.7,0,0,0-.13.67,1.67,1.67,0,0,0,.13.67,1.75,1.75,0,0,0,.91.92,1.65,1.65,0,0,0,1.33,0,1.9,1.9,0,0,0,.55-.37,1.87,1.87,0,0,0,.36-.55,1.67,1.67,0,0,0,.13-.67,1.7,1.7,0,0,0-.13-.67,1.87,1.87,0,0,0-.36-.55A1.65,1.65,0,0,0,106,32m0-.43a2.05,2.05,0,0,1,.85.17,2.14,2.14,0,0,1,.69.46,2.34,2.34,0,0,1,.47.69,2.16,2.16,0,0,1,0,1.68,2.18,2.18,0,0,1-.47.68,2.31,2.31,0,0,1-.69.46,2.19,2.19,0,0,1-1.69,0,2.31,2.31,0,0,1-.69-.46,2.1,2.1,0,0,1-.46-2.36,2.11,2.11,0,0,1,1.15-1.15,2,2,0,0,1,.84-.17"/><path class="cls-6" d="M109.39,33.56h.15a2.34,2.34,0,0,0,.38,0,.9.9,0,0,0,.34-.1.66.66,0,0,0,.24-.23.75.75,0,0,0,.09-.39.83.83,0,0,0-.09-.41.54.54,0,0,0-.23-.22,1.13,1.13,0,0,0-.34-.1l-.4,0h-.14Zm0,2.24h-.46V31.63h.6a3.45,3.45,0,0,1,.57.05,1.42,1.42,0,0,1,.49.17,1,1,0,0,1,.34.35,1.21,1.21,0,0,1,.13.58,1.15,1.15,0,0,1-.28.79,1.12,1.12,0,0,1-.77.36l1.33,1.87h-.57L109.51,34h-.12Z"/><polygon class="cls-6" points="114.56 31.39 116.07 34.89 117.59 31.39 118.43 35.8 117.96 35.8 117.42 32.98 117.41 32.98 116.07 35.97 114.73 32.98 114.72 32.98 114.19 35.8 113.71 35.8 114.56 31.39"/><path class="cls-6" d="M121.12,32a1.67,1.67,0,0,0-.67.13,1.75,1.75,0,0,0-.91.92,1.9,1.9,0,0,0-.13.67,1.86,1.86,0,0,0,.13.67,1.75,1.75,0,0,0,.91.92,1.67,1.67,0,0,0,.67.14,1.71,1.71,0,0,0,.67-.14,2,2,0,0,0,.54-.37,1.87,1.87,0,0,0,.36-.55,1.67,1.67,0,0,0,.14-.67,1.71,1.71,0,0,0-.14-.67,1.87,1.87,0,0,0-.36-.55,1.73,1.73,0,0,0-.54-.37,1.67,1.67,0,0,0-.67-.13m0-.43a2,2,0,0,1,.84.17,2,2,0,0,1,.69.46,2.34,2.34,0,0,1,.47.69,2.16,2.16,0,0,1,0,1.68A2.2,2.2,0,0,1,122,35.7a2.16,2.16,0,0,1-1.68,0,2.09,2.09,0,0,1-.69-.46,2,2,0,0,1-.47-.68,2.16,2.16,0,0,1,0-1.68,2.17,2.17,0,0,1,.47-.69,1.94,1.94,0,0,1,.69-.46,2,2,0,0,1,.84-.17"/><polygon class="cls-6" points="125 35.8 124.53 35.8 124.53 32.06 123.53 32.06 123.53 31.63 126.02 31.63 126.02 32.06 125 32.06 125 35.8"/><path class="cls-6" d="M128.42,32a1.67,1.67,0,0,0-.67.13,1.73,1.73,0,0,0-.54.37,1.87,1.87,0,0,0-.36.55,1.7,1.7,0,0,0-.13.67,1.67,1.67,0,0,0,.13.67,1.87,1.87,0,0,0,.36.55,1.9,1.9,0,0,0,.55.37,1.63,1.63,0,0,0,.66.14,1.67,1.67,0,0,0,.67-.14,1.75,1.75,0,0,0,.91-.92,1.67,1.67,0,0,0,.13-.67A1.7,1.7,0,0,0,130,33a1.87,1.87,0,0,0-.36-.55,1.9,1.9,0,0,0-.55-.37,1.63,1.63,0,0,0-.67-.13m0-.43a2,2,0,0,1,.84.17,2.08,2.08,0,0,1,.7.46,2.31,2.31,0,0,1,.46.69,2.16,2.16,0,0,1,0,1.68,2.15,2.15,0,0,1-.46.68,2.24,2.24,0,0,1-.7.46,2.16,2.16,0,0,1-1.68,0,2.31,2.31,0,0,1-.69-.46,2.18,2.18,0,0,1-.47-.68,2.16,2.16,0,0,1,0-1.68,2.34,2.34,0,0,1,.47-.69,2.14,2.14,0,0,1,.69-.46,2,2,0,0,1,.84-.17"/><path class="cls-6" d="M131.88,33.56H132a2.34,2.34,0,0,0,.38,0,.9.9,0,0,0,.34-.1.66.66,0,0,0,.24-.23.75.75,0,0,0,.09-.39.83.83,0,0,0-.09-.41.6.6,0,0,0-.23-.22,1.13,1.13,0,0,0-.34-.1l-.4,0h-.14Zm0,2.24h-.46V31.63h.6a3.45,3.45,0,0,1,.57.05,1.5,1.5,0,0,1,.49.17,1,1,0,0,1,.34.35,1.22,1.22,0,0,1,.12.58,1.15,1.15,0,0,1-.27.79,1.12,1.12,0,0,1-.77.36l1.33,1.87h-.57L132,34h-.12Z"/><path class="cls-6" d="M135.18,35.36h.47l.38,0a.91.91,0,0,0,.34-.11.68.68,0,0,0,.25-.23.75.75,0,0,0,.09-.39.67.67,0,0,0-.1-.39.73.73,0,0,0-.27-.22,1.06,1.06,0,0,0-.37-.1,2.56,2.56,0,0,0-.39,0h-.4Zm0-1.9h.18a2.23,2.23,0,0,0,.37,0,.75.75,0,0,0,.31-.09.47.47,0,0,0,.21-.21.8.8,0,0,0,.08-.38.81.81,0,0,0-.07-.38.58.58,0,0,0-.2-.21.75.75,0,0,0-.31-.09l-.39,0h-.18Zm-.46-1.83h.68a3.1,3.1,0,0,1,.54.05,1.25,1.25,0,0,1,.44.19.92.92,0,0,1,.3.35,1.08,1.08,0,0,1,.11.54,1,1,0,0,1-.1.46.86.86,0,0,1-.31.35A1,1,0,0,1,137,34a.94.94,0,0,1,.15.32,1,1,0,0,1,0,.36,1.12,1.12,0,0,1-.11.53,1.22,1.22,0,0,1-.32.36,1.48,1.48,0,0,1-.48.2,2.63,2.63,0,0,1-.58.07h-1Z"/><rect class="cls-6" x="138.06" y="31.63" width="0.46" height="4.17"/><polygon class="cls-6" points="141.91 31.63 142.53 31.63 140.58 33.57 142.6 35.8 141.96 35.8 140.25 33.88 140.14 34 140.14 35.8 139.67 35.8 139.67 31.63 140.14 31.63 140.14 33.41 141.91 31.63"/><polygon class="cls-6" points="143.24 31.63 145.4 31.63 145.4 32.06 143.71 32.06 143.71 33.3 145.35 33.3 145.35 33.73 143.71 33.73 143.71 35.36 145.4 35.36 145.4 35.8 143.24 35.8 143.24 31.63"/><path class="cls-6" d="M148.16,32.44a1,1,0,0,0-.29-.33.68.68,0,0,0-.42-.12.62.62,0,0,0-.27.05.71.71,0,0,0-.22.13.75.75,0,0,0-.15.2.58.58,0,0,0-.05.26.48.48,0,0,0,.06.24.55.55,0,0,0,.16.18,1.07,1.07,0,0,0,.21.13l.22.11.27.12a3.54,3.54,0,0,1,.39.19,1.91,1.91,0,0,1,.32.24,1,1,0,0,1,.29.74,1.22,1.22,0,0,1-.1.51,1.3,1.3,0,0,1-.28.41,1.51,1.51,0,0,1-.42.27,1.4,1.4,0,0,1-.51.1,1.39,1.39,0,0,1-.46-.08,1.11,1.11,0,0,1-.38-.22,1.19,1.19,0,0,1-.29-.34,1.29,1.29,0,0,1-.16-.44l.45-.13a1,1,0,0,0,.09.3.94.94,0,0,0,.18.25.85.85,0,0,0,.25.17.81.81,0,0,0,.31.06.87.87,0,0,0,.32-.06.88.88,0,0,0,.28-.17.83.83,0,0,0,.19-.26.72.72,0,0,0,.07-.33.62.62,0,0,0-.07-.31.87.87,0,0,0-.17-.22,1.2,1.2,0,0,0-.25-.16l-.28-.13-.25-.12-.35-.17a1.69,1.69,0,0,1-.29-.22,1,1,0,0,1-.2-.28,1.13,1.13,0,0,1-.07-.39.92.92,0,0,1,.1-.44,1,1,0,0,1,.25-.34,1.22,1.22,0,0,1,.82-.28,1.15,1.15,0,0,1,.63.17,1.27,1.27,0,0,1,.45.47Z"/></g></g></g></svg>