<svg xmlns="http://www.w3.org/2000/svg" xmlns:xlink="http://www.w3.org/1999/xlink" viewBox="0 0 214.66 35.68"><defs><style>.cls-1{fill:none;}.cls-2{fill:#1e0f00;}.cls-3{clip-path:url(#clip-path);}.cls-4,.cls-5{fill:#000c0d;}.cls-4{fill-rule:evenodd;}</style><clipPath id="clip-path" transform="translate(0)"><rect class="cls-1" width="143.79" height="32.67"/></clipPath></defs><title>アセット 3</title><g id="レイヤー_2" data-name="レイヤー 2"><g id="レイヤー_1-2" data-name="レイヤー 1"><path class="cls-2" d="M164.75,30.27c0,1.77-.25,5.41-4.46,5.41-3.14,0-3.63-1.26-3.63-1.89a1,1,0,0,1,1.13-1,1.54,1.54,0,0,1,1.48,1c.29.61.57.84,1,.84,1.2,0,1.24-2,1.24-3.81V20.59c0-1.46-.15-1.67-1.77-1.67V18h6.59v1c-1.46,0-1.6.23-1.6,1.65Z" transform="translate(0)"/><path class="cls-2" d="M173.21,28.11h-4.46L168.22,30a4,4,0,0,0-.19,1c0,.42.27.52,1,.52v.92h-3.57v-.92c.61,0,.92-.21,1.21-1.1l4.08-12.72h2l4.39,12.45c.41,1.16.66,1.37,1.33,1.37v.92H173v-.92c.76,0,1-.15,1-.54a2.22,2.22,0,0,0-.17-.71ZM172.84,27,171,21.17h-.08L169.14,27Z" transform="translate(0)"/><path class="cls-2" d="M177.78,31.52c1.52,0,1.69-.23,1.69-1.66V20.57c0-1.44-.17-1.65-1.69-1.65V18h6.31c2.15,0,3.43.29,4.39,1A3.55,3.55,0,0,1,190,22a3.63,3.63,0,0,1-1.46,3.17c-1,.71-2.28,1.08-4.78,1.08h-1.07v3.65c0,1.45.1,1.66,1.85,1.66v.92h-6.76Zm6-6.43c2.26,0,2.95-1.27,2.95-3,0-2.79-1.82-3-2.85-3h-.68c-.41,0-.47.19-.47,1.08v4.92Z" transform="translate(0)"/><path class="cls-2" d="M196.57,28.11h-4.46L191.58,30a3.91,3.91,0,0,0-.18,1c0,.42.26.52,1,.52v.92h-3.57v-.92c.61,0,.92-.21,1.21-1.1l4.08-12.72h2l4.39,12.45c.41,1.16.66,1.37,1.34,1.37v.92h-5.49v-.92c.76,0,1-.15,1-.54a2.44,2.44,0,0,0-.16-.71ZM196.2,27l-1.89-5.83h-.08L192.5,27Z" transform="translate(0)"/><path class="cls-2" d="M205.64,18l6.1,10.66h0V20.57c0-1.44-.22-1.65-1.62-1.65V18h4.5v1c-1.3,0-1.52.21-1.52,1.65V32.65H211L204.1,20.82h0v9c0,1.43.17,1.66,1.56,1.66v.92h-4.49v-.92c1.39,0,1.56-.23,1.56-1.66V20.53c0-1.46-.17-1.61-1.58-1.61V18Z" transform="translate(0)"/><g class="cls-3"><path class="cls-4" d="M25.26,1.86,16.88,13.23H33.63Zm2.14,12.4,5.94,7.18H0L15.54,0l5.22,6.22,4.5-6.1L35.67,14.26Zm112,11.2v5.31l-1.5,1.48h5.9l-1.5-1.48V19.82l1.5-1.51h-5.9l1.5,1.51V24H134.9V19.82l1.5-1.51h-5.9L132,19.82v11l-1.48,1.48h5.9l-1.5-1.48V25.46Zm-10.11-6.61a7.09,7.09,0,0,0-3.92-.83c-3.6,0-6.38,3.51-6.38,7.26s2.78,7.29,6.38,7.29a7.36,7.36,0,0,0,3.92-.83V28.25l-2.19,2.19a2.29,2.29,0,0,1-1.73.68c-2.55,0-3-3.25-3-5.84s.33-5.92,3-5.92a2.42,2.42,0,0,1,1.73.65l2.19,2.24v-3.4m-11.49,13.4V28.94l-1.89,1.87h-3.54V25.58h2.45l1.5,1.48V22.62l-1.5,1.52h-2.45V19.76h3.54l1.89,1.89V18.31H108l1.49,1.51v11L108,32.25Zm-14.35-1.48v-11h2l1.89,1.89V18.31H96.68v3.34l1.9-1.89h1.93v11L99,32.25h5.9ZM92.36,27l-1.52-4.62-.06.14L89.2,27h3.16Zm-.16,5.25,1.46-1.48-.77-2.37H88.71l-.84,2.37,1.47,1.48H84.62l1.52-1.5,4.44-12.44h1.78l4.32,12.44,1.52,1.5ZM61.68,28.52c0,2.6,2.49,4.15,4.88,4.15,2.58,0,4.91-1.68,4.91-4.15v-8.7L73,18.31H68.23l1.51,1.51v8.7a2.58,2.58,0,1,1-5.16,0v-8.7l1.48-1.51h-5.9l1.52,1.51Zm-5.11-3.24c0-2.6-.46-5.92-3-5.92s-3,3.32-3,5.92.43,5.94,3,5.94,3-3.31,3-5.94m3.39,0c0,3.81-2.54,7.39-6.37,7.39s-6.38-3.58-6.38-7.39,2.55-7.36,6.38-7.36S60,21.49,60,25.28m-15.85,7h-5.9l1.5-1.48v-11h-2l-1.88,1.89V18.31H46.46v3.34l-1.89-1.89h-2v11Z" transform="translate(0)"/><path class="cls-4" d="M79.53,24.41a1.85,1.85,0,0,1-.57.1h-1V19.76h1a2.18,2.18,0,0,1,.57.08A2.27,2.27,0,0,1,81.13,22a2.47,2.47,0,0,1-1.6,2.38m5.11,6.36-2.92-5.33A3.81,3.81,0,0,0,84.34,22c0-2.35-2.44-3.52-4.81-3.69-.2,0-.4,0-.57,0h-5.4L75,19.82v11l-1.47,1.48h5.89l-1.52-1.48V26h1l.59,1.22L82,32.25h4.11Z" transform="translate(0)"/><polygon class="cls-5" points="61.64 9.91 64.89 13.31 64.89 10.08 65.36 10.08 65.36 14.44 62.11 11.04 62.11 14.25 61.64 14.25 61.64 9.91"/><polygon class="cls-5" points="66.53 10.08 68.69 10.08 68.69 10.51 66.99 10.51 66.99 11.75 68.64 11.75 68.64 12.18 66.99 12.18 66.99 13.82 68.69 13.82 68.69 14.25 66.53 14.25 66.53 10.08"/><polygon class="cls-5" points="70.92 13.2 72.27 9.87 73.62 13.2 74.71 10.08 75.22 10.08 73.62 14.46 72.27 11.11 70.92 14.46 69.33 10.08 69.83 10.08 70.92 13.2"/><rect class="cls-5" x="77.8" y="10.08" width="0.46" height="4.17"/><path class="cls-5" d="M80.21,13.82l.37,0a1.86,1.86,0,0,0,.34-.06,1.23,1.23,0,0,0,.31-.14,1.82,1.82,0,0,0,.3-.21,1.77,1.77,0,0,0,.39-.56,1.85,1.85,0,0,0,.13-.66,1.77,1.77,0,0,0-.14-.69,1.53,1.53,0,0,0-1-.89,3,3,0,0,0-.69-.08h-.33v3.31Zm-.8-3.74h.79l.45,0a2.7,2.7,0,0,1,.41.08,1.56,1.56,0,0,1,.39.15,1.78,1.78,0,0,1,.37.26,1.82,1.82,0,0,1,.53.71,2.28,2.28,0,0,1,.16.87,2.15,2.15,0,0,1-.16.85,1.94,1.94,0,0,1-.52.7,2.17,2.17,0,0,1-.37.27,2.14,2.14,0,0,1-.39.16,2.07,2.07,0,0,1-.42.08l-.46,0h-.78Z" transform="translate(0)"/><polygon class="cls-5" points="83.35 10.08 85.51 10.08 85.51 10.51 83.82 10.51 83.82 11.75 85.46 11.75 85.46 12.18 83.82 12.18 83.82 13.82 85.51 13.82 85.51 14.25 83.35 14.25 83.35 10.08"/><path class="cls-5" d="M87.91,11l-.71,1.67h1.41ZM87,13.07l-.5,1.18H86l1.92-4.37,1.88,4.37h-.52l-.49-1.18Z" transform="translate(0)"/><path class="cls-5" d="M92.22,10.89a1.18,1.18,0,0,0-.29-.33.71.71,0,0,0-.43-.12.75.75,0,0,0-.26.05.61.61,0,0,0-.22.13.51.51,0,0,0-.15.21.55.55,0,0,0-.06.26.37.37,0,0,0,.07.23.65.65,0,0,0,.15.18.92.92,0,0,0,.21.13l.22.11.28.12.38.19a1.57,1.57,0,0,1,.32.24,1,1,0,0,1,.22.31,1.14,1.14,0,0,1,.08.43,1.26,1.26,0,0,1-.38.92,1.68,1.68,0,0,1-.42.27,1.25,1.25,0,0,1-.51.1,1.34,1.34,0,0,1-.46-.08,1.22,1.22,0,0,1-.39-.21,1.2,1.2,0,0,1-.28-.35,1.3,1.3,0,0,1-.17-.44l.45-.12a1.18,1.18,0,0,0,.1.3,1.08,1.08,0,0,0,.18.24.74.74,0,0,0,.25.17.81.81,0,0,0,.31.06.87.87,0,0,0,.32-.06,1,1,0,0,0,.27-.17.7.7,0,0,0,.19-.26.69.69,0,0,0,.08-.32.71.71,0,0,0-.07-.31.62.62,0,0,0-.17-.22,1.38,1.38,0,0,0-.25-.17l-.28-.13-.26-.11L90.91,12a1.36,1.36,0,0,1-.29-.21.84.84,0,0,1-.2-.29.94.94,0,0,1-.07-.39,1,1,0,0,1,.09-.44.93.93,0,0,1,.26-.33,1,1,0,0,1,.37-.21,1.32,1.32,0,0,1,.44-.08,1.21,1.21,0,0,1,.63.17,1.16,1.16,0,0,1,.45.48Z" transform="translate(0)"/><polygon class="cls-5" points="95.97 10.51 95.97 11.75 97.36 11.75 97.36 12.18 95.97 12.18 95.97 14.25 95.51 14.25 95.51 10.08 97.4 10.08 97.4 10.51 95.97 10.51"/><path class="cls-5" d="M100.19,10.44a1.67,1.67,0,0,0-.67.14A1.58,1.58,0,0,0,99,11a1.75,1.75,0,0,0-.36.55,1.77,1.77,0,0,0,0,1.33,1.87,1.87,0,0,0,.36.55,1.9,1.9,0,0,0,.55.37,1.63,1.63,0,0,0,.66.14,1.67,1.67,0,0,0,.67-.14,1.75,1.75,0,0,0,.91-.92,1.77,1.77,0,0,0,0-1.33,1.75,1.75,0,0,0-.36-.55,1.72,1.72,0,0,0-.55-.37,1.64,1.64,0,0,0-.67-.14m0-.43a2.22,2.22,0,0,1,.85.17,2.11,2.11,0,0,1,1.15,1.15,2.16,2.16,0,0,1,0,1.68A2.14,2.14,0,0,1,101,14.15a2.22,2.22,0,0,1-.85.17,2.19,2.19,0,0,1-1.53-.63,2.18,2.18,0,0,1-.47-.68,2.16,2.16,0,0,1,0-1.68,2.34,2.34,0,0,1,.47-.69,2.31,2.31,0,0,1,.69-.46,2.14,2.14,0,0,1,.84-.17" transform="translate(0)"/><path class="cls-5" d="M103.54,12h.14l.39,0a1.13,1.13,0,0,0,.34-.11.59.59,0,0,0,.24-.23.7.7,0,0,0,.09-.39.79.79,0,0,0-.09-.4.63.63,0,0,0-.23-.23.9.9,0,0,0-.34-.09,2.6,2.6,0,0,0-.4,0h-.14Zm0,2.24h-.46V10.08h.6a3.45,3.45,0,0,1,.57.05,1.58,1.58,0,0,1,.49.17,1,1,0,0,1,.34.35,1.25,1.25,0,0,1,.12.58,1.08,1.08,0,0,1-1,1.15l1.33,1.87h-.57l-1.26-1.83h-.12Z" transform="translate(0)"/><polygon class="cls-5" points="108.7 9.84 110.22 13.34 111.74 9.84 112.58 14.25 112.11 14.25 111.57 11.43 111.56 11.43 110.22 14.42 108.88 11.43 108.87 11.43 108.33 14.25 107.86 14.25 108.7 9.84"/><path class="cls-5" d="M115.27,10.44a1.72,1.72,0,0,0-.68.14,1.79,1.79,0,0,0-.54.37,1.75,1.75,0,0,0-.36.55,1.77,1.77,0,0,0,0,1.33,1.75,1.75,0,0,0,.91.92,1.65,1.65,0,0,0,1.33,0,1.9,1.9,0,0,0,.55-.37,1.87,1.87,0,0,0,.36-.55,1.77,1.77,0,0,0,0-1.33,1.75,1.75,0,0,0-.36-.55,1.58,1.58,0,0,0-.54-.37,1.71,1.71,0,0,0-.67-.14m0-.43a2.21,2.21,0,0,1,.84.17,2.31,2.31,0,0,1,.69.46,2.34,2.34,0,0,1,.47.69,2.16,2.16,0,0,1,0,1.68,2.18,2.18,0,0,1-.47.68,2.14,2.14,0,0,1-.69.46,2.19,2.19,0,0,1-1.69,0A2.14,2.14,0,0,1,113.27,13a2,2,0,0,1,0-1.68,2.11,2.11,0,0,1,1.15-1.15,2.22,2.22,0,0,1,.85-.17" transform="translate(0)"/><polygon class="cls-5" points="119.14 14.25 118.68 14.25 118.68 10.51 117.68 10.51 117.68 10.08 120.16 10.08 120.16 10.51 119.14 10.51 119.14 14.25"/><path class="cls-5" d="M122.57,10.44a1.67,1.67,0,0,0-.67.14,1.58,1.58,0,0,0-.54.37,1.46,1.46,0,0,0-.36.55,1.65,1.65,0,0,0,0,1.33,1.69,1.69,0,0,0,.36.55,1.9,1.9,0,0,0,.55.37,1.63,1.63,0,0,0,.66.14,1.67,1.67,0,0,0,.67-.14,2,2,0,0,0,.54-.37,1.9,1.9,0,0,0,.37-.55,1.77,1.77,0,0,0,0-1.33,1.62,1.62,0,0,0-.37-.55,1.58,1.58,0,0,0-.54-.37,1.67,1.67,0,0,0-.67-.14m0-.43a2.14,2.14,0,0,1,.84.17,2.09,2.09,0,0,1,.69.46,2.17,2.17,0,0,1,.47.69,2.16,2.16,0,0,1,0,1.68,2,2,0,0,1-.47.68,1.94,1.94,0,0,1-.69.46,2.16,2.16,0,0,1-1.68,0,1.94,1.94,0,0,1-.69-.46,2.18,2.18,0,0,1-.47-.68,2.16,2.16,0,0,1,0-1.68,2.34,2.34,0,0,1,.47-.69,2.09,2.09,0,0,1,.69-.46,2.14,2.14,0,0,1,.84-.17" transform="translate(0)"/><path class="cls-5" d="M126,12h.14l.39,0a1.23,1.23,0,0,0,.34-.11.59.59,0,0,0,.24-.23.7.7,0,0,0,.09-.39.79.79,0,0,0-.09-.4.59.59,0,0,0-.24-.23.85.85,0,0,0-.33-.09,2.6,2.6,0,0,0-.4,0H126Zm0,2.24h-.47V10.08h.61a3.45,3.45,0,0,1,.57.05,1.44,1.44,0,0,1,.48.17,1,1,0,0,1,.35.35,1.25,1.25,0,0,1,.12.58,1.08,1.08,0,0,1-1,1.15L128,14.25h-.57l-1.26-1.83H126Z" transform="translate(0)"/><path class="cls-5" d="M129.33,13.82h.46a2.34,2.34,0,0,0,.38,0,1,1,0,0,0,.35-.12.59.59,0,0,0,.24-.23.67.67,0,0,0,.1-.39.61.61,0,0,0-.11-.38.71.71,0,0,0-.26-.23,1.44,1.44,0,0,0-.37-.1,2.56,2.56,0,0,0-.39,0h-.4Zm0-1.9h.17l.38,0a1.26,1.26,0,0,0,.31-.09.5.5,0,0,0,.21-.22.8.8,0,0,0,.08-.38,1,1,0,0,0-.07-.38.58.58,0,0,0-.2-.21.94.94,0,0,0-.31-.09l-.39,0h-.18Zm-.47-1.84h.69a2.2,2.2,0,0,1,.53.06,1.14,1.14,0,0,1,.45.19.83.83,0,0,1,.3.34,1.27,1.27,0,0,1,.11.54,1,1,0,0,1-.1.46.94.94,0,0,1-.31.35,1,1,0,0,1,.34.15,1.42,1.42,0,0,1,.25.24,1.33,1.33,0,0,1,.15.32,1.36,1.36,0,0,1,0,.36,1.25,1.25,0,0,1-.11.53,1,1,0,0,1-.33.36,1.34,1.34,0,0,1-.47.2,2.15,2.15,0,0,1-.58.07h-1Z" transform="translate(0)"/><rect class="cls-5" x="132.21" y="10.08" width="0.46" height="4.17"/><polygon class="cls-5" points="136.06 10.08 136.68 10.08 134.73 12.02 136.75 14.25 136.11 14.25 134.4 12.34 134.28 12.45 134.28 14.25 133.82 14.25 133.82 10.08 134.28 10.08 134.28 11.87 136.06 10.08"/><polygon class="cls-5" points="137.39 10.08 139.55 10.08 139.55 10.51 137.85 10.51 137.85 11.75 139.5 11.75 139.5 12.18 137.85 12.18 137.85 13.82 139.55 13.82 139.55 14.25 137.39 14.25 137.39 10.08"/><path class="cls-5" d="M142.31,10.89a1,1,0,0,0-.29-.33.71.71,0,0,0-.43-.12.8.8,0,0,0-.26.05.61.61,0,0,0-.22.13.8.8,0,0,0-.15.21.55.55,0,0,0-.06.26.37.37,0,0,0,.07.23.65.65,0,0,0,.15.18,1.2,1.2,0,0,0,.21.13l.23.11.27.12a3.54,3.54,0,0,1,.39.19,1.5,1.5,0,0,1,.31.24.84.84,0,0,1,.22.31,1,1,0,0,1,.08.43,1.26,1.26,0,0,1-.38.92,1.51,1.51,0,0,1-.42.27,1.25,1.25,0,0,1-.51.1,1.39,1.39,0,0,1-.46-.08,1.33,1.33,0,0,1-.39-.21,1.39,1.39,0,0,1-.28-.35,1.55,1.55,0,0,1-.17-.44l.46-.12a.86.86,0,0,0,.09.3,1.08,1.08,0,0,0,.18.24.85.85,0,0,0,.25.17.81.81,0,0,0,.31.06.87.87,0,0,0,.32-.06,1,1,0,0,0,.28-.17,1,1,0,0,0,.19-.26.83.83,0,0,0,.07-.32.59.59,0,0,0-.07-.31.62.62,0,0,0-.17-.22,1.1,1.1,0,0,0-.25-.17l-.28-.13-.26-.11L141,12a1.67,1.67,0,0,1-.29-.21.84.84,0,0,1-.2-.29.94.94,0,0,1-.07-.39,1,1,0,0,1,.72-1,1.32,1.32,0,0,1,.44-.08,1.19,1.19,0,0,1,.63.17,1.16,1.16,0,0,1,.45.48Z" transform="translate(0)"/></g></g></g></svg>